<svg width="40" height="40" viewBox="0 0 40 40" fill="none" xmlns="http://www.w3.org/2000/svg">
<path d="M20 8.86667L30 14.4833V25.5167L20 31.1333L10 25.5167V14.4833L20 8.86667M35 27.5C35 28.1333 34.65 28.6833 34.1167 28.9667L20.95 36.3667C20.6833 36.5667 20.35 36.6667 20 36.6667C19.65 36.6667 19.3167 36.5667 19.05 36.3667L5.88334 28.9667C5.61614 28.8263 5.39253 28.6153 5.23679 28.3567C5.08106 28.0982 4.99917 27.8019 5.00001 27.5V12.5C5.00001 11.8667 5.35001 11.3167 5.88334 11.0333L19.05 3.63334C19.3167 3.43334 19.65 3.33334 20 3.33334C20.35 3.33334 20.6833 3.43334 20.95 3.63334L34.1167 11.0333C34.65 11.3167 35 11.8667 35 12.5V27.5ZM20 6.91667L8.33334 13.4833V26.5167L20 33.0833L31.6667 26.5167V13.4833L20 6.91667Z" fill="#00FCE9"/>
<path d="M14.912 26V14.8H20.304C21.3493 14.8 22.2507 14.9707 23.008 15.312C23.776 15.6533 24.368 16.144 24.784 16.784C25.2 17.4133 25.408 18.16 25.408 19.024C25.408 19.888 25.2 20.6347 24.784 21.264C24.368 21.8827 23.776 22.3573 23.008 22.688C22.2507 23.0187 21.3493 23.184 20.304 23.184H17.008L18.688 21.632V26H14.912ZM21.616 26L18.864 21.92H22.864L25.648 26H21.616ZM18.688 22.048L17.008 20.336H20.064C20.5867 20.336 20.9707 20.2187 21.216 19.984C21.472 19.7493 21.6 19.4293 21.6 19.024C21.6 18.6187 21.472 18.2987 21.216 18.064C20.9707 17.8293 20.5867 17.712 20.064 17.712H17.008L18.688 16V22.048Z" fill="#012438"/>
</svg>
