<svg width="24" height="24" viewBox="0 0 24 24" fill="none" xmlns="http://www.w3.org/2000/svg">
<path fill-rule="evenodd" clip-rule="evenodd" d="M5.77649 5.54949C6.39249 6.04999 6.62349 6.01199 7.78048 5.93449L18.6865 5.27949C18.918 5.27949 18.7255 5.04899 18.6485 5.01049L16.8375 3.70099C16.4905 3.43149 16.028 3.12299 15.142 3.19999L4.58198 3.96999C4.19698 4.00799 4.11999 4.20049 4.27349 4.35499L5.77649 5.54949Z" fill="white"/>
<path fill-rule="evenodd" clip-rule="evenodd" d="M6.431 8.09095V19.5659C6.431 20.1824 6.739 20.4134 7.433 20.3754L19.4185 19.6819C20.1125 19.6439 20.19 19.2194 20.19 18.7184V7.32045C20.19 6.82045 19.9975 6.55045 19.573 6.58895L7.048 7.32045C6.5855 7.35895 6.431 7.59045 6.431 8.09095Z" fill="white"/>
<path fill-rule="evenodd" clip-rule="evenodd" d="M5.7765 5.54947C6.3925 6.04997 6.6235 6.01197 7.7805 5.93447L18.6865 5.27947C18.918 5.27947 18.7255 5.04897 18.6485 5.01047L16.8375 3.70097C16.4905 3.43147 16.028 3.12297 15.142 3.19997L4.582 3.96997C4.197 4.00797 4.12 4.20047 4.2735 4.35497L5.7765 5.54947ZM6.431 8.09097V19.566C6.431 20.1825 6.739 20.4135 7.433 20.3755L19.4185 19.682C20.1125 19.644 20.19 19.2195 20.19 18.7185V7.32047C20.19 6.82047 19.9975 6.55047 19.573 6.58897L7.048 7.32047C6.5855 7.35897 6.431 7.59047 6.431 8.09097ZM18.263 8.70647C18.34 9.05347 18.263 9.39997 17.9155 9.43897L17.338 9.55397V18.0255C16.8365 18.295 16.374 18.449 15.989 18.449C15.372 18.449 15.2175 18.2565 14.7555 17.679L10.978 11.749V17.4865L12.1735 17.756C12.1735 17.756 12.1735 18.449 11.209 18.449L8.5505 18.603C8.4735 18.449 8.5505 18.064 8.82 17.987L9.514 17.7945V10.209L8.5505 10.132C8.473 9.78497 8.6655 9.28497 9.2055 9.24597L12.0575 9.05347L15.9885 15.061V9.74647L14.986 9.63147C14.909 9.20747 15.217 8.89947 15.6025 8.86147L18.263 8.70647ZM3.6945 2.93097L14.6785 2.12197C16.0275 2.00647 16.3745 2.08397 17.222 2.69947L20.7285 5.16397C21.307 5.58797 21.5 5.70347 21.5 6.16497V19.681C21.5 20.528 21.1915 21.029 20.1125 21.1055L7.3565 21.876C6.5465 21.9145 6.161 21.799 5.737 21.26L3.155 17.91C2.6925 17.2935 2.5 16.832 2.5 16.2925V4.27797C2.5 3.58547 2.8085 3.00747 3.6945 2.93097Z" fill="#424242"/>
</svg>
