<svg width="24" height="24" viewBox="0 0 24 24" fill="none" xmlns="http://www.w3.org/2000/svg">
<g clip-path="url(#clip0_11_398)">
<path d="M0 0H24V24H0V0Z" fill="#F7DF1E"/>
<path d="M6.31052 20.0562L8.14708 18.9447C8.50146 19.5729 8.82377 20.1045 9.59692 20.1045C10.338 20.1045 10.8054 19.8146 10.8054 18.687V11.0184H13.0607V18.7188C13.0607 21.0548 11.6914 22.1181 9.69358 22.1181C7.88936 22.1181 6.84208 21.1837 6.31042 20.056M14.2857 19.8145L16.1221 18.7513C16.6056 19.5407 17.2339 20.1207 18.3454 20.1207C19.28 20.1207 19.8759 19.6534 19.8759 19.009C19.8759 18.2357 19.2637 17.9618 18.2326 17.5109L17.6689 17.269C16.0417 16.5765 14.9623 15.7065 14.9623 13.8699C14.9623 12.1783 16.2511 10.8894 18.265 10.8894C19.6988 10.8894 20.7298 11.3889 21.4708 12.6938L19.7147 13.8216C19.328 13.1289 18.9093 12.8551 18.2649 12.8551C17.6043 12.8551 17.1854 13.2739 17.1854 13.8216C17.1854 14.4982 17.6043 14.7722 18.5709 15.1911L19.1347 15.4327C21.0519 16.2544 22.1312 17.0921 22.1312 18.9768C22.1312 21.0069 20.5363 22.1184 18.3937 22.1184C16.2994 22.1184 14.9461 21.1196 14.2856 19.8146" fill="black"/>
</g>
<defs>
<clipPath id="clip0_11_398">
<rect width="24" height="24" fill="white"/>
</clipPath>
</defs>
</svg>
