<svg width="21" height="24" viewBox="0 0 21 24" fill="none" xmlns="http://www.w3.org/2000/svg">
<g clip-path="url(#clip0_11_476)">
<path d="M20.416 7.74219L19.6745 5.74086L20.1848 4.59269C20.2485 4.4412 20.2167 4.27375 20.105 4.15415L18.7097 2.74286C18.0957 2.1289 17.1868 1.91362 16.3655 2.20066L15.9748 2.33621L13.8379 0.0239203L10.226 0H10.202L6.56615 0.0318937L4.43725 2.36013L4.05453 2.22458C3.22529 1.92957 2.30835 2.14485 1.69439 2.77475L0.275125 4.20997C0.179444 4.30565 0.155523 4.4412 0.203364 4.5608L0.737583 5.75681L0.00402832 7.75814L0.482434 9.56811L2.6512 17.8047C2.89838 18.7535 3.47247 19.5827 4.27778 20.1568C4.27778 20.1568 6.90901 22.0146 9.50037 23.697C9.7316 23.8485 9.97081 23.9522 10.226 23.9522C10.4811 23.9522 10.7203 23.8485 10.9515 23.697C13.8698 21.7834 16.1741 20.1488 16.1741 20.1488C16.9715 19.5748 17.5456 18.7455 17.7927 17.7967L19.9456 9.56013L20.416 7.74219Z" fill="#F15A22"/>
<path opacity="0.15" d="M2.75486 18.1555L0.00402832 7.93354L0.809344 5.93221L0.251204 4.44915L1.58277 3.09367C2.0213 2.70297 2.88243 2.56742 3.2811 2.79865L5.36217 3.99467L8.07313 4.62457L10.1861 3.74749L10.3615 21.903C10.3296 24.5183 10.4971 24.2392 8.57546 23.0033L3.83127 19.8219C3.32097 19.3355 2.93027 18.7854 2.75486 18.1555Z" fill="url(#paint0_linear_11_476)"/>
<path opacity="0.4" d="M16.1263 20.1126L12.0917 22.8714C10.9675 23.4854 10.4253 24.0914 10.3376 23.7964C10.2658 23.5651 10.3216 22.8874 10.2977 21.8349L10.2499 4.07809C10.2579 3.90267 10.3775 3.60765 10.5848 3.63955L12.6419 4.26147L15.608 3.79902L17.5695 2.35583C17.7768 2.19636 18.0798 2.21231 18.2711 2.39569L20.0253 4.07011C20.1848 4.23755 20.1927 4.56447 20.0971 4.77177L19.6107 5.67277L20.416 7.75383L17.6412 18.0714C17.2107 19.3552 16.6047 19.69 16.1263 20.1126Z" fill="url(#paint1_linear_11_476)"/>
<path d="M10.6884 14.735C10.5927 14.6951 10.4891 14.6632 10.4572 14.6632H10.202C10.1701 14.6632 10.0665 14.6951 9.97081 14.735L8.93426 15.1655C8.83858 15.2054 8.67911 15.2772 8.58343 15.325L7.02064 16.1383C6.92496 16.1861 6.91699 16.2738 7.00469 16.3376L8.38409 17.3104C8.4718 17.3742 8.60735 17.4778 8.68709 17.5496L9.30104 18.0758C9.38077 18.1476 9.50835 18.2592 9.58808 18.331L10.1781 18.8572C10.2578 18.929 10.3854 18.929 10.4652 18.8572L11.0711 18.331C11.1509 18.2592 11.2784 18.1476 11.3582 18.0758L11.9721 17.5416C12.0519 17.4699 12.1874 17.3662 12.2751 17.3024L13.6545 16.3217C13.7422 16.2579 13.7343 16.1702 13.6386 16.1223L12.0758 15.325C11.9801 15.2772 11.8206 15.2054 11.725 15.1655L10.6884 14.735Z" fill="white"/>
<path d="M18.1685 8.09759C18.2004 7.99394 18.2004 7.95407 18.2004 7.95407C18.2004 7.85042 18.1924 7.675 18.1765 7.57135L18.0968 7.34012C18.0489 7.24444 17.9692 7.09294 17.9054 7.00523L17.0044 5.67367C16.9486 5.58597 16.8449 5.45042 16.7732 5.36271L15.6091 3.90357C15.5453 3.82384 15.4815 3.75208 15.4735 3.76005H15.4576C15.4576 3.76005 15.3699 3.776 15.2662 3.79195L13.4881 4.14278C13.3845 4.1667 13.217 4.19859 13.1134 4.21454L13.0815 4.22251C12.9778 4.23846 12.8104 4.23048 12.7067 4.19859L11.2157 3.72018C11.112 3.68829 10.9446 3.64045 10.8489 3.61653C10.8489 3.61653 10.5459 3.54477 10.2988 3.55274C10.0516 3.55274 9.74859 3.61653 9.74859 3.61653C9.64494 3.64045 9.47749 3.68829 9.38181 3.72018L7.89078 4.19859C7.78713 4.23048 7.61969 4.23846 7.51603 4.22251L7.48414 4.21454C7.38049 4.19859 7.21304 4.15872 7.10939 4.14278L5.31537 3.80789C5.21171 3.78397 5.12401 3.776 5.12401 3.776H5.10806C5.10009 3.776 5.0363 3.83979 4.97251 3.91952L3.80839 5.37866C3.7446 5.45839 3.64095 5.60191 3.57716 5.68962L2.67617 7.02118C2.62035 7.10889 2.53264 7.26038 2.4848 7.35607L2.40507 7.58729C2.38912 7.69095 2.37318 7.86636 2.38115 7.97002C2.38115 7.97002 2.38115 8.00191 2.41304 8.11354C2.46886 8.3049 2.6044 8.48032 2.6044 8.48032C2.66819 8.56005 2.78779 8.6956 2.85955 8.76736L5.49876 11.574C5.57052 11.6537 5.59444 11.7973 5.55457 11.8929L5.00441 13.1926C4.96454 13.2883 4.95656 13.4478 4.99643 13.5514L5.14793 13.9581C5.2755 14.3009 5.49078 14.6039 5.77783 14.8351L6.31205 15.2657C6.39178 15.3295 6.5353 15.3534 6.63098 15.3056L8.32135 14.5003C8.41703 14.4524 8.56055 14.3567 8.64029 14.285L9.85225 13.1926C10.0277 13.0331 10.0356 12.762 9.87617 12.5866L7.33264 10.8723C7.24494 10.8165 7.21304 10.689 7.26088 10.5933L8.37716 8.48829C8.425 8.39261 8.43298 8.24111 8.39311 8.14543L8.25756 7.83447C8.21769 7.73879 8.09809 7.62716 8.00241 7.58729L4.72534 6.35939C4.62965 6.31952 4.62965 6.27965 4.73331 6.27168L6.84627 6.07234C6.94992 6.06437 7.11736 6.08032 7.22102 6.10424L9.10274 6.63048C9.2064 6.66238 9.27019 6.76603 9.25424 6.86969L8.60042 10.4498C8.58447 10.5534 8.58447 10.6969 8.60839 10.7767C8.63231 10.8564 8.73597 10.9282 8.83962 10.9521L10.1473 11.2311C10.2509 11.2551 10.4184 11.2551 10.522 11.2311L11.7419 10.9521C11.8456 10.9282 11.9493 10.8484 11.9732 10.7767C11.9971 10.7049 12.0051 10.5534 11.9811 10.4498L11.3353 6.86969C11.3194 6.76603 11.3831 6.6544 11.4868 6.63048L13.3685 6.10424C13.4722 6.07234 13.6396 6.06437 13.7433 6.07234L15.8562 6.27168C15.9599 6.27965 15.9679 6.31952 15.8642 6.35939L12.5871 7.60324C12.4914 7.64311 12.3718 7.74676 12.332 7.85042L12.1964 8.16138C12.1566 8.25706 12.1566 8.41653 12.2124 8.50424L13.3366 10.6092C13.3845 10.7049 13.3526 10.8245 13.2649 10.8883L10.7213 12.6105C10.5539 12.778 10.5699 13.0571 10.7453 13.2165L11.9572 14.3089C12.037 14.3806 12.1805 14.4763 12.2762 14.5162L13.9745 15.3215C14.0702 15.3694 14.2137 15.3454 14.2934 15.2816L14.8277 14.8431C15.1147 14.6119 15.33 14.3089 15.4496 13.966L15.6011 13.5594C15.641 13.4637 15.633 13.2963 15.5931 13.2006L15.0429 11.9009C15.0031 11.8052 15.027 11.6617 15.0988 11.582L17.738 8.77533C17.8097 8.6956 17.9213 8.56803 17.9931 8.48829C17.9772 8.46437 18.1207 8.28896 18.1685 8.09759Z" fill="white"/>
</g>
<defs>
<linearGradient id="paint0_linear_11_476" x1="0.00402832" y1="13.3036" x2="10.3716" y2="13.3036" gradientUnits="userSpaceOnUse">
<stop stop-color="white"/>
<stop offset="0.1413" stop-color="white" stop-opacity="0.958"/>
<stop offset="1" stop-color="white" stop-opacity="0.7"/>
</linearGradient>
<linearGradient id="paint1_linear_11_476" x1="10.2459" y1="13.0559" x2="20.416" y2="13.0559" gradientUnits="userSpaceOnUse">
<stop stop-color="#F1F1F2"/>
<stop offset="0.09191" stop-color="#E4E5E6"/>
<stop offset="0.2357" stop-color="#D9DADB"/>
<stop offset="0.438" stop-color="#D2D4D5"/>
<stop offset="1" stop-color="#D0D2D3"/>
</linearGradient>
<clipPath id="clip0_11_476">
<rect width="20.42" height="24" fill="white"/>
</clipPath>
</defs>
</svg>
