<svg width="22" height="24" viewBox="0 0 22 24" fill="none" xmlns="http://www.w3.org/2000/svg">
<g clip-path="url(#clip0_11_452)">
<path d="M10.63 23.9554C10.2999 23.9554 9.9918 23.8674 9.70571 23.7134L6.77863 21.9747C6.33849 21.7327 6.55856 21.6446 6.6906 21.6006C7.28478 21.4026 7.39482 21.3585 8.01101 21.0064C8.07712 20.9623 8.16514 20.9843 8.23108 21.0284L10.476 22.3709C10.564 22.4149 10.674 22.4149 10.74 22.3709L19.5212 17.2871C19.6092 17.2431 19.6533 17.1551 19.6533 17.045V6.89934C19.6533 6.7893 19.6092 6.70127 19.5212 6.65726L10.74 1.59542C10.652 1.5514 10.542 1.5514 10.476 1.59542L1.69478 6.65734C1.60675 6.70136 1.56274 6.81139 1.56274 6.89942V17.045C1.56274 17.1331 1.60675 17.2431 1.69478 17.2871L4.0937 18.6735C5.39219 19.3337 6.20636 18.5635 6.20636 17.7933V7.77961C6.20636 7.64757 6.31648 7.51553 6.47053 7.51553H7.59296C7.72501 7.51553 7.85705 7.62556 7.85705 7.77961V17.7932C7.85705 19.5318 6.91067 20.5441 5.26006 20.5441C4.75391 20.5441 4.35778 20.5441 3.23543 19.994L0.924535 18.6735C0.352355 18.3433 0.000244141 17.7272 0.000244141 17.0669V6.92143C0.000244141 6.26122 0.352355 5.64502 0.924535 5.31484L9.70571 0.231073C10.2559 -0.0770242 11.0041 -0.0770242 11.5543 0.231073L20.3355 5.31484C20.9076 5.64494 21.2598 6.26113 21.2598 6.92143V17.067C21.2598 17.7272 20.9076 18.3434 20.3355 18.6735L11.5543 23.7575C11.2682 23.8895 10.9381 23.9555 10.63 23.9555V23.9554ZM13.3369 16.9789C9.48556 16.9789 8.69331 15.2184 8.69331 13.7218C8.69331 13.5898 8.80334 13.4577 8.95739 13.4577H10.1018C10.2338 13.4577 10.3439 13.5458 10.3439 13.6778C10.52 14.8442 11.0261 15.4164 13.3589 15.4164C15.2076 15.4164 15.9999 14.9983 15.9999 14.008C15.9999 13.4357 15.7799 13.0176 12.8968 12.7314C10.498 12.4893 9.00141 11.9612 9.00141 10.0466C9.00141 8.26385 10.4979 7.20752 13.0068 7.20752C15.8238 7.20752 17.2103 8.17582 17.3864 10.2886C17.3864 10.3546 17.3644 10.4206 17.3204 10.4866C17.2763 10.5306 17.2103 10.5747 17.1443 10.5747H15.9999C15.8898 10.5747 15.7799 10.4866 15.7578 10.3766C15.4937 9.16621 14.8115 8.77009 13.0068 8.77009C10.9822 8.77009 10.74 9.47431 10.74 10.0025C10.74 10.6408 11.0261 10.8387 13.7551 11.1909C16.4621 11.543 17.7385 12.0492 17.7385 13.9419C17.7165 15.8786 16.132 16.9789 13.3369 16.9789Z" fill="#539E43"/>
</g>
<defs>
<clipPath id="clip0_11_452">
<rect width="21.26" height="24" fill="white"/>
</clipPath>
</defs>
</svg>
