<svg width="31" height="24" viewBox="0 0 31 24" fill="none" xmlns="http://www.w3.org/2000/svg">
<g clip-path="url(#clip0_11_468)">
<path d="M26.1563 2.00165C24.1315 1.05428 21.9895 0.381129 19.7868 0C19.5124 0.49604 19.1918 1.16322 18.9708 1.69399C16.5959 1.33688 14.2428 1.33688 11.9115 1.69399C11.6906 1.16334 11.3628 0.49604 11.0859 0C8.881 0.381305 6.73712 1.05617 4.7114 2.00659C0.680361 8.09813 -0.412423 14.0382 0.133909 19.8942C2.80756 21.8908 5.39859 23.1037 7.94597 23.8974C8.57906 23.0268 9.13869 22.105 9.61909 21.1417C8.70447 20.7935 7.82275 20.3644 6.9844 19.8595C7.20502 19.6959 7.42044 19.5255 7.63035 19.3485C12.7104 21.7246 18.2302 21.7246 23.2496 19.3485C23.4605 19.5243 23.6758 19.6947 23.8955 19.8595C23.0558 20.3657 22.1724 20.7957 21.256 21.1442C21.7391 22.1115 22.2977 23.0341 22.9291 23.8998C25.4789 23.1062 28.0723 21.8933 30.746 19.8942C31.3871 13.1057 29.6509 7.22002 26.1563 2.00153V2.00165ZM10.3112 16.2929C8.78621 16.2929 7.53556 14.8691 7.53556 13.1355C7.53556 11.4018 8.75956 9.97568 10.3112 9.97568C11.863 9.97568 13.1136 11.3993 13.0869 13.1355C13.0893 14.8691 11.863 16.2929 10.3112 16.2929ZM20.5686 16.2929C19.0436 16.2929 17.7931 14.8691 17.7931 13.1355C17.7931 11.4018 19.017 9.97568 20.5686 9.97568C22.1204 9.97568 23.371 11.3993 23.3443 13.1355C23.3443 14.8691 22.1204 16.2929 20.5686 16.2929V16.2929Z" fill="#5865F2"/>
</g>
<defs>
<clipPath id="clip0_11_468">
<rect width="30.88" height="24" fill="white"/>
</clipPath>
</defs>
</svg>
