<svg width="28" height="24" viewBox="0 0 28 24" fill="none" xmlns="http://www.w3.org/2000/svg">
<g clip-path="url(#clip0_11_486)">
<path d="M1.41287 0.482178H26.0172C26.5011 0.482178 26.8936 0.873785 26.8936 1.35678V22.5361C26.8936 23.0191 26.5011 23.4107 26.0172 23.4107H1.41287C0.928902 23.4107 0.536438 23.0191 0.536438 22.5361V1.35678C0.536438 0.873785 0.928902 0.482178 1.41287 0.482178Z" fill="black"/>
<path d="M0.769482 1.5375V22.3857C0.769568 22.5896 0.850632 22.7851 0.994852 22.9293C1.13907 23.0734 1.33464 23.1544 1.53855 23.1544H25.8915C25.9925 23.1545 26.0925 23.1346 26.1858 23.096C26.2791 23.0574 26.3639 23.0008 26.4353 22.9294C26.5067 22.858 26.5634 22.7732 26.602 22.6799C26.6407 22.5867 26.6606 22.4867 26.6606 22.3857V1.5375C26.6605 1.33359 26.5794 1.13805 26.4352 0.993892C26.291 0.849733 26.0954 0.76875 25.8915 0.76875H1.53855C1.43757 0.768708 1.33757 0.788561 1.24427 0.827175C1.15096 0.86579 1.06618 0.922409 0.994758 0.993798C0.923339 1.06519 0.866684 1.14995 0.828031 1.24324C0.789377 1.33653 0.769482 1.43652 0.769482 1.5375ZM0.000732422 1.5375C0.000732422 0.688393 0.689018 0 1.53855 0H25.8915C26.7408 0 27.4293 0.688607 27.4293 1.5375V22.3857C27.4293 23.2348 26.741 23.9232 25.8915 23.9232H1.53855C0.689232 23.9232 0.000732422 23.2346 0.000732422 22.3857V1.5375Z" fill="url(#paint0_linear_11_486)"/>
<path d="M8.15965 8.92609H12.2832V9.72676H8.15955V8.92609H8.15965ZM6.90137 6.85148L3.27073 10.1136L4.40076 7.25873L2.80573 6.18301L6.43626 2.92126L5.20733 5.95823L6.90126 6.85148H6.90137Z" fill="white"/>
</g>
<defs>
<linearGradient id="paint0_linear_11_486" x1="13.1533" y1="23.3478" x2="13.1533" y2="0" gradientUnits="userSpaceOnUse">
<stop stop-color="#FFB300"/>
<stop offset="0.61372" stop-color="#DC3939"/>
<stop offset="1" stop-color="#FF1BB4"/>
</linearGradient>
<clipPath id="clip0_11_486">
<rect width="27.43" height="24" fill="white"/>
</clipPath>
</defs>
</svg>
