<svg width="24" height="24" viewBox="0 0 24 24" fill="none" xmlns="http://www.w3.org/2000/svg">
<path d="M4.4265 20.4007L2.742 1.5H21.258L19.5713 20.3978L11.9888 22.5L4.4265 20.4007Z" fill="#1572B6"/>
<path d="M12 20.8935L18.1275 19.1948L19.569 3.04578H12V20.8935Z" fill="#33A9DC"/>
<path d="M12 9.89329H15.0675L15.279 7.51954H12V5.20129H17.8125L17.757 5.82304L17.1877 12.2115H12V9.89329Z" fill="white"/>
<path d="M12.0142 15.9135L12.0037 15.9165L9.42224 15.219L9.25724 13.3702H6.92999L7.25474 17.01L12.003 18.3285L12.0142 18.3255V15.9135Z" fill="#EBEBEB"/>
<path d="M14.8703 12.1133L14.5913 15.2175L12.006 15.915V18.327L16.758 17.01L16.7933 16.6185L17.196 12.1133H14.8703Z" fill="white"/>
<path d="M12.0082 5.20129V7.51954H6.40874L6.36224 6.99829L6.25649 5.82304L6.20099 5.20129H12.0082ZM12 9.89329V12.2115H9.45074L9.40424 11.6903L9.29924 10.515L9.24374 9.89329H12Z" fill="#EBEBEB"/>
</svg>
