<svg width="24" height="24" viewBox="0 0 24 24" fill="none" xmlns="http://www.w3.org/2000/svg">
<path d="M21.7575 3.77245L17.433 1.69045C17.1888 1.57269 16.914 1.53384 16.6467 1.57926C16.3794 1.62468 16.1329 1.75213 15.9412 1.94395L1.78499 14.8499C1.61323 15.0058 1.51042 15.2235 1.49917 15.4551C1.48792 15.6868 1.56915 15.9134 1.72499 16.0852C1.74374 16.1054 1.76249 16.1249 1.78274 16.1429L2.93849 17.1929C3.08951 17.3304 3.28391 17.4106 3.48791 17.4196C3.69192 17.4287 3.89265 17.366 4.05524 17.2424L21.1065 4.31245C21.2353 4.21471 21.3888 4.15487 21.5498 4.13966C21.7107 4.12444 21.8727 4.15446 22.0175 4.22632C22.1624 4.29819 22.2843 4.40906 22.3695 4.54644C22.4547 4.68382 22.4999 4.84227 22.5 5.00395V4.9537C22.5 4.70687 22.4303 4.46506 22.2989 4.25609C22.1676 4.04712 21.9799 3.87948 21.7575 3.77245Z" fill="#0065A9"/>
<path d="M21.7575 20.2275L17.433 22.3102C17.1887 22.4277 16.914 22.4663 16.6468 22.4209C16.3796 22.3755 16.133 22.2483 15.9412 22.0567L1.78499 9.14999C1.61323 8.99414 1.51042 8.77644 1.49917 8.54479C1.48792 8.31313 1.56915 8.0865 1.72499 7.91474C1.74374 7.89449 1.76249 7.87499 1.78274 7.85699L2.93849 6.80699C3.08967 6.66896 3.28451 6.58839 3.48902 6.57935C3.69353 6.5703 3.89472 6.63335 4.05749 6.75749L21.1065 19.6875C21.2353 19.7852 21.3888 19.8451 21.5498 19.8603C21.7107 19.8755 21.8727 19.8455 22.0175 19.7736C22.1624 19.7017 22.2843 19.5909 22.3695 19.4535C22.4547 19.3161 22.4999 19.1577 22.5 18.996V19.05C22.4992 19.2962 22.4291 19.5371 22.2978 19.7454C22.1665 19.9536 21.9793 20.1207 21.7575 20.2275Z" fill="#007ACC"/>
<path d="M17.433 22.3103C17.1887 22.4277 16.914 22.4664 16.6468 22.4209C16.3796 22.3755 16.1331 22.2483 15.9413 22.0568C16.049 22.1631 16.1856 22.2352 16.3342 22.2642C16.4827 22.2931 16.6365 22.2776 16.7762 22.2195C16.916 22.1615 17.0355 22.0635 17.1197 21.9378C17.204 21.8121 17.2493 21.6643 17.25 21.513V2.48702C17.2501 2.33498 17.2051 2.18633 17.1207 2.0599C17.0363 1.93346 16.9162 1.83492 16.7758 1.77678C16.6353 1.71863 16.4807 1.70348 16.3316 1.73325C16.1825 1.76302 16.0456 1.83638 15.9383 1.94402C16.1299 1.75227 16.3764 1.62481 16.6436 1.57926C16.9109 1.53372 17.1857 1.57233 17.43 1.68977L21.7538 3.76877C21.9769 3.87527 22.1653 4.04268 22.2974 4.25169C22.4294 4.4607 22.4997 4.70279 22.5 4.95002V19.05C22.5001 19.297 22.4303 19.5391 22.2988 19.7482C22.1673 19.9573 21.9794 20.125 21.7568 20.232L17.433 22.3103Z" fill="#1F9CF0"/>
</svg>
